<svg xmlns="http://www.w3.org/2000/svg" viewBox="0 0 1200 630" width="1200" height="630">
  <defs>
    <linearGradient id="g" x1="0%" y1="0%" x2="100%" y2="100%">
      <stop offset="0%" stop-color="#00695C"/>
      <stop offset="100%" stop-color="#1565C0"/>
    </linearGradient>
    <linearGradient id="g2" x1="0%" y1="100%" x2="100%" y2="0%">
      <stop offset="0%" stop-color="#00695C" stop-opacity="0.3"/>
      <stop offset="100%" stop-color="#1565C0" stop-opacity="0"/>
    </linearGradient>
  </defs>
  <rect width="1200" height="630" fill="url(#g)"/>
  <circle cx="1080" cy="80" r="320" fill="rgba(255,255,255,0.06)"/>
  <circle cx="120" cy="580" r="220" fill="rgba(255,255,255,0.06)"/>
  <circle cx="600" cy="315" r="550" fill="url(#g2)"/>
  <rect x="490" y="200" rx="12" ry="12" width="75" height="75" fill="rgba(255,255,255,0.25)"/>
  <rect x="580" y="200" rx="12" ry="12" width="75" height="75" fill="rgba(255,255,255,0.35)"/>
  <rect x="670" y="200" rx="12" ry="12" width="75" height="75" fill="rgba(255,255,255,0.20)"/>
  <rect x="490" y="290" rx="12" ry="12" width="75" height="75" fill="rgba(255,255,255,0.35)"/>
  <rect x="580" y="290" rx="12" ry="12" width="75" height="75" fill="rgba(255,255,255,0.20)"/>
  <rect x="670" y="290" rx="12" ry="12" width="75" height="75" fill="rgba(255,255,255,0.30)"/>
  <text x="600" y="480" font-family="ui-sans-serif,system-ui,-apple-system,Arial,sans-serif" font-size="52" font-weight="700" fill="rgba(255,255,255,0.95)" text-anchor="middle" letter-spacing="-1">Google Gemini</text>
  <text x="600" y="540" font-family="ui-sans-serif,system-ui,-apple-system,Arial,sans-serif" font-size="26" fill="rgba(255,255,255,0.60)" text-anchor="middle">lookforit.xyz</text>
</svg>